<svg width="1767" height="712" viewBox="0 0 1767 712" fill="none" xmlns="http://www.w3.org/2000/svg">
<path d="M1112 594V537.491L1146.61 507.537M1112 594H1208.06L1336 273M1112 594L1336 273M1336 273L1208.06 439.386M1146.61 507.537L1181.21 477.582L1208.06 439.386M1146.61 507.537L1112 337.88L1208.06 439.386" stroke="white" stroke-width="9"/>
<path d="M217.23 506.476C217.23 477.993 224.27 455.694 238.349 439.581C252.509 423.386 272.813 415.289 299.262 415.289C314.724 415.289 327.501 417.934 337.592 423.224C347.683 428.432 354.926 435.593 359.32 444.708C361.599 449.428 361.233 452.683 358.222 454.474L348.578 460.089C345.323 461.961 342.434 460.414 339.911 455.45C337.226 450.323 332.831 445.522 326.728 441.046C320.624 436.57 311.876 434.332 300.482 434.332C280.137 434.332 265.326 440.68 256.049 453.375C246.853 465.989 242.255 483.689 242.255 506.476C242.255 529.262 246.853 547.003 256.049 559.698C265.326 572.312 280.137 578.619 300.482 578.619C312.201 578.619 321.56 575.934 328.559 570.562C335.639 565.191 340.766 559.576 343.939 553.717C346.462 548.997 349.392 547.573 352.729 549.444L362.86 555.182C365.79 556.891 366.034 560.146 363.593 564.947C358.791 574.306 350.979 582.118 340.155 588.385C329.332 594.57 315.701 597.662 299.262 597.662C272.813 597.662 252.509 589.605 238.349 573.492C224.27 557.298 217.23 534.959 217.23 506.476ZM399.97 594C396.308 594 394.477 592.169 394.477 588.507V436.163C394.477 434.535 394.883 432.989 395.697 431.524L404.242 416.021C405.788 413.173 407.05 411.749 408.026 411.749H412.299C414.74 411.749 415.961 413.173 415.961 416.021V588.507C415.961 592.169 414.13 594 410.468 594H399.97ZM456.122 594C452.46 594 450.629 592.169 450.629 588.507V471.319C450.629 467.657 452.46 465.826 456.122 465.826H466.62C470.282 465.826 472.113 467.657 472.113 471.319V588.507C472.113 592.169 470.282 594 466.62 594H456.122ZM456.122 442.633C452.46 442.633 450.629 440.802 450.629 437.14V426.642C450.629 422.979 452.46 421.148 456.122 421.148H466.62C470.282 421.148 472.113 422.979 472.113 426.642V437.14C472.113 440.802 470.282 442.633 466.62 442.633H456.122ZM512.274 594C508.612 594 506.781 592.169 506.781 588.507V471.319C506.781 467.657 508.612 465.826 512.274 465.826H522.528C526.19 465.826 528.021 467.657 528.021 471.319V481.085H528.51C533.799 475.226 539.537 470.872 545.722 468.023C551.907 465.175 557.847 463.751 563.544 463.751C574.042 463.751 582.099 466.396 587.714 471.686C593.41 476.894 597.073 482.143 598.7 487.433H599.188C603.664 480.759 609.32 475.144 616.156 470.587C622.992 466.03 630.276 463.751 638.007 463.751C650.946 463.751 660.712 467.942 667.304 476.324C673.896 484.625 677.191 496.018 677.191 510.504V588.507C677.191 592.169 675.36 594 671.698 594H661.2C657.538 594 655.707 592.169 655.707 588.507V517.584C655.707 501.633 653.713 491.339 649.726 486.7C645.738 481.98 639.594 479.62 631.293 479.62C623.155 479.62 616.36 483.119 610.907 490.118C605.455 497.035 602.729 507.493 602.729 521.49V588.507C602.729 592.169 600.897 594 597.235 594H586.737C583.075 594 581.244 592.169 581.244 588.507V517.584C581.244 501.633 579.25 491.339 575.263 486.7C571.275 481.98 565.131 479.62 556.83 479.62C548.692 479.62 541.897 482.794 536.444 489.142C530.992 495.408 528.266 506.191 528.266 521.49V588.507C528.266 592.169 526.435 594 522.772 594H512.274ZM704.657 559.82C704.657 545.335 711.412 534.715 724.921 527.96C738.511 521.205 758.775 517.258 785.712 516.119V507.818C785.712 500.169 783.962 493.577 780.463 488.043C777.045 482.428 770.209 479.62 759.955 479.62C753.445 479.62 748.236 480.271 744.33 481.573C740.424 482.794 736.843 484.462 733.588 486.578C730.414 488.613 727.362 491.257 724.433 494.513C722.235 496.954 720.16 497.076 718.207 494.879L711.859 487.555C710.069 485.52 710.679 483.079 713.69 480.23C718.004 476.161 722.195 473.11 726.264 471.075C730.333 469.041 735.378 467.332 741.4 465.948C747.504 464.483 753.689 463.751 759.955 463.751C776.964 463.751 789.089 468.146 796.332 476.935C803.575 485.642 807.196 497.605 807.196 512.823V588.507C807.196 592.169 805.365 594 801.703 594H790.717C787.543 594 785.956 592.169 785.956 588.507V582.525H785.712C779.283 587.571 772.976 591.111 766.791 593.146C760.688 595.099 753.852 596.075 746.283 596.075C732.937 596.075 722.642 592.901 715.399 586.554C708.238 580.125 704.657 571.214 704.657 559.82ZM726.874 560.309C726.874 565.354 727.932 569.423 730.048 572.516C732.164 575.527 735.093 577.48 738.837 578.375C742.58 579.189 746.487 579.596 750.556 579.596C756.822 579.596 762.763 578.985 768.378 577.765C773.993 576.544 779.771 573.329 785.712 568.121V532.11C769.273 533.331 757.554 534.837 750.556 536.627C743.557 538.336 737.86 541.347 733.466 545.66C729.071 549.892 726.874 554.775 726.874 560.309ZM919.135 506.476C919.135 477.993 926.5 455.694 941.229 439.581C955.959 423.386 976.426 415.289 1002.63 415.289C1018.34 415.289 1031.15 418.015 1041.08 423.468C1051.01 428.839 1058.29 435.187 1062.93 442.511C1065.78 447.068 1065.74 450.364 1062.81 452.398L1053.66 458.746C1050.65 460.862 1047.63 459.601 1044.62 454.962C1042.18 451.3 1037.58 446.946 1030.83 441.9C1024.07 436.855 1015.08 434.332 1003.85 434.332C983.913 434.332 968.98 440.68 959.052 453.375C949.123 465.989 944.159 483.689 944.159 506.476C944.159 529.262 949.001 547.003 958.686 559.698C968.37 572.312 983.832 578.619 1005.07 578.619C1015.65 578.619 1024.85 577.358 1032.66 574.835C1040.55 572.231 1046.09 568.65 1049.26 564.093V531.744H1013.01C1008.53 531.744 1006.29 529.913 1006.29 526.251V517.218C1006.29 513.556 1008.53 511.725 1013.01 511.725H1065.99C1070.46 511.725 1072.7 513.556 1072.7 517.218V574.835C1062.77 582.078 1052.84 587.693 1042.91 591.681C1032.99 595.668 1019.96 597.662 1003.85 597.662C976.996 597.662 956.163 589.605 941.352 573.492C926.54 557.298 919.135 534.959 919.135 506.476Z" fill="white"/>
<path d="M1291.1 594C1287.4 594 1285.54 592.147 1285.54 588.441V469.847C1285.54 466.141 1287.4 464.288 1291.1 464.288H1301.48C1305.18 464.288 1307.04 466.141 1307.04 469.847V479.73H1307.53C1312.88 473.8 1318.65 469.394 1324.83 466.512C1331 463.629 1338.7 462.188 1347.93 462.188C1362.92 462.188 1373.66 466.429 1380.17 474.912C1386.76 483.312 1390.05 494.842 1390.05 509.502V588.441C1390.05 592.147 1388.2 594 1384.49 594H1373.87C1370.16 594 1368.31 592.147 1368.31 588.441V515.432C1368.31 499.29 1365.63 489.077 1360.28 484.795C1354.93 480.43 1348.13 478.248 1339.9 478.248C1329.19 478.248 1321.08 481.459 1315.56 487.883C1310.04 494.225 1307.28 505.137 1307.28 520.62V588.441C1307.28 592.147 1305.43 594 1301.73 594H1291.1Z" fill="white"/>
</svg>
